<svg width="106" height="61" viewBox="0 0 106 61" fill="none" xmlns="http://www.w3.org/2000/svg">
<rect x="1.37756" y="1.42554" width="103.363" height="58.7762" rx="9.5" fill="#E4EBF4" stroke="#092C7B" stroke-dasharray="10 10"/>
<path fill-rule="evenodd" clip-rule="evenodd" d="M53.0591 41.4879C58.9545 41.4879 63.7334 36.709 63.7334 30.8136C63.7334 24.9182 58.9545 20.1393 53.0591 20.1393C47.1637 20.1393 42.3848 24.9182 42.3848 30.8136C42.3848 36.709 47.1637 41.4879 53.0591 41.4879ZM51.9917 26.5439C51.9917 26.2608 52.1041 25.9893 52.3043 25.7891C52.5045 25.5889 52.776 25.4764 53.0591 25.4764C53.3422 25.4764 53.6137 25.5889 53.8139 25.7891C54.0141 25.9893 54.1265 26.2608 54.1265 26.5439V29.7462H57.3288C57.6119 29.7462 57.8834 29.8586 58.0836 30.0588C58.2838 30.259 58.3962 30.5305 58.3962 30.8136C58.3962 31.0967 58.2838 31.3682 58.0836 31.5684C57.8834 31.7686 57.6119 31.881 57.3288 31.881H54.1265V35.0833C54.1265 35.3664 54.0141 35.6379 53.8139 35.8381C53.6137 36.0383 53.3422 36.1508 53.0591 36.1508C52.776 36.1508 52.5045 36.0383 52.3043 35.8381C52.1041 35.6379 51.9917 35.3664 51.9917 35.0833V31.881H48.7894C48.5063 31.881 48.2348 31.7686 48.0346 31.5684C47.8344 31.3682 47.7219 31.0967 47.7219 30.8136C47.7219 30.5305 47.8344 30.259 48.0346 30.0588C48.2348 29.8586 48.5063 29.7462 48.7894 29.7462H51.9917V26.5439Z" fill="#092C7B"/>
</svg>
