<svg width="17" height="21" viewBox="0 0 17 21" fill="none" xmlns="http://www.w3.org/2000/svg">
<path d="M11.2547 2.36713L12.1271 0.793214C12.1383 0.773022 12.1454 0.750823 12.148 0.727884C12.1506 0.704945 12.1487 0.681716 12.1423 0.659522C12.136 0.637329 12.1253 0.616606 12.1109 0.598537C12.0966 0.580468 12.0788 0.565407 12.0586 0.554213C12.0178 0.531606 11.9697 0.526124 11.9249 0.538974C11.8801 0.551824 11.8422 0.581953 11.8196 0.622733L10.9375 2.21409C10.1849 1.88415 9.37203 1.71381 8.55027 1.71381C7.72851 1.71381 6.91567 1.88415 6.16305 2.21409L5.28094 0.622733C5.25833 0.581953 5.22045 0.551824 5.17563 0.538974C5.13081 0.526124 5.08272 0.531606 5.04194 0.554213C5.00116 0.57682 4.97103 0.614701 4.95818 0.659522C4.94533 0.704344 4.95081 0.752434 4.97342 0.793214L5.84587 2.36714C5.01539 2.7765 4.3137 3.40667 3.81776 4.18852C3.32181 4.97038 3.05077 5.87371 3.03437 6.79945H14.0662C14.0498 5.87371 13.7787 4.97037 13.2828 4.18851C12.7868 3.40666 12.0852 2.77649 11.2547 2.36713V2.36713ZM6.00441 4.78091C5.91331 4.78091 5.82424 4.7539 5.74849 4.70328C5.67274 4.65266 5.61369 4.58072 5.57883 4.49654C5.54396 4.41237 5.53484 4.31975 5.55261 4.23039C5.57039 4.14103 5.61426 4.05895 5.67868 3.99453C5.74311 3.93011 5.82519 3.88624 5.91454 3.86846C6.0039 3.85069 6.09652 3.85981 6.1807 3.89467C6.26487 3.92954 6.33681 3.98858 6.38743 4.06434C6.43805 4.14009 6.46506 4.22915 6.46506 4.32026C6.46493 4.44239 6.41635 4.55948 6.32999 4.64584C6.24363 4.7322 6.12654 4.78078 6.00441 4.78091V4.78091ZM11.0961 4.78091C11.005 4.78091 10.9159 4.7539 10.8402 4.70328C10.7644 4.65266 10.7054 4.58072 10.6705 4.49654C10.6357 4.41237 10.6265 4.31975 10.6443 4.23039C10.6621 4.14103 10.7059 4.05895 10.7704 3.99453C10.8348 3.93011 10.9169 3.88624 11.0062 3.86846C11.0956 3.85069 11.1882 3.85981 11.2724 3.89467C11.3566 3.92954 11.4285 3.98858 11.4791 4.06434C11.5297 4.14009 11.5568 4.22915 11.5568 4.32026C11.5566 4.44239 11.508 4.55948 11.4217 4.64584C11.3353 4.7322 11.2182 4.78078 11.0961 4.78091V4.78091ZM3.03428 15.231C3.03428 15.5847 3.17478 15.9239 3.42487 16.174C3.67495 16.424 4.01414 16.5645 4.36782 16.5645H5.25276V19.2922C5.25232 19.4549 5.28398 19.6161 5.34593 19.7665C5.40788 19.9169 5.49889 20.0536 5.61376 20.1688C5.72863 20.284 5.8651 20.3754 6.01535 20.4377C6.16559 20.5001 6.32667 20.5322 6.48934 20.5322C6.65201 20.5322 6.81308 20.5001 6.96333 20.4377C7.11358 20.3754 7.25005 20.284 7.36492 20.1688C7.47979 20.0536 7.5708 19.9169 7.63275 19.7665C7.69469 19.6161 7.72635 19.4549 7.72591 19.2922V16.5645H9.3746V19.2922C9.37416 19.4549 9.40582 19.6161 9.46777 19.7665C9.52971 19.9169 9.62073 20.0536 9.7356 20.1688C9.85047 20.284 9.98694 20.3754 10.1372 20.4377C10.2874 20.5001 10.4485 20.5322 10.6112 20.5322C10.7738 20.5322 10.9349 20.5001 11.0852 20.4377C11.2354 20.3754 11.3719 20.284 11.4868 20.1688C11.6016 20.0536 11.6926 19.9169 11.7546 19.7665C11.8165 19.6161 11.8482 19.4549 11.8478 19.2922V16.5645H12.7327C13.0864 16.5645 13.4256 16.424 13.6757 16.174C13.9258 15.9239 14.0663 15.5847 14.0663 15.231V7.23584H3.03428V15.231ZM1.33704 7.02368C1.00919 7.02405 0.694881 7.15445 0.46306 7.38628C0.231238 7.6181 0.100839 7.93241 0.100468 8.26026V13.4126C0.100027 13.5752 0.131687 13.7364 0.193633 13.8868C0.255579 14.0372 0.346594 14.1739 0.461465 14.2891C0.576335 14.4043 0.712803 14.4957 0.86305 14.558C1.0133 14.6204 1.17437 14.6525 1.33704 14.6525C1.49971 14.6525 1.66079 14.6204 1.81103 14.558C1.96128 14.4957 2.09775 14.4043 2.21262 14.2891C2.32749 14.1739 2.4185 14.0372 2.48045 13.8868C2.5424 13.7364 2.57406 13.5752 2.57362 13.4126V8.26026C2.57325 7.93241 2.44284 7.6181 2.21102 7.38627C1.9792 7.15445 1.66488 7.02405 1.33704 7.02368V7.02368ZM15.7635 7.02368C15.4356 7.02405 15.1213 7.15445 14.8895 7.38627C14.6577 7.6181 14.5273 7.93241 14.5269 8.26026V13.4126C14.5265 13.5752 14.5581 13.7364 14.6201 13.8868C14.682 14.0372 14.773 14.1739 14.8879 14.2891C15.0028 14.4043 15.1392 14.4957 15.2895 14.558C15.4397 14.6204 15.6008 14.6525 15.7635 14.6525C15.9261 14.6525 16.0872 14.6204 16.2375 14.558C16.3877 14.4957 16.5242 14.4043 16.6391 14.2891C16.7539 14.1739 16.8449 14.0372 16.9069 13.8868C16.9688 13.7364 17.0005 13.5752 17 13.4126V8.26026C16.9997 7.93241 16.8693 7.6181 16.6375 7.38628C16.4056 7.15445 16.0913 7.02405 15.7635 7.02368V7.02368Z" fill="white"/>
</svg>
