<svg width="18" height="21" viewBox="0 0 18 21" fill="none" xmlns="http://www.w3.org/2000/svg">
<path d="M11.9008 3.85745C12.2789 3.42176 12.5671 2.91568 12.749 2.36829C12.9309 1.82089 13.0029 1.24295 12.9608 0.667664C11.8002 0.761344 10.7229 1.30718 9.96097 2.18756C9.59609 2.60951 9.31959 3.10038 9.14783 3.63111C8.97607 4.16184 8.91255 4.72164 8.96103 5.27736C9.52714 5.28207 10.0867 5.15646 10.5965 4.91024C11.1063 4.66402 11.5526 4.3038 11.9008 3.85745V3.85745ZM14.4207 11.297C14.4274 10.5307 14.6292 9.77888 15.0071 9.11231C15.385 8.44573 15.9265 7.88644 16.5805 7.48721C16.1678 6.89249 15.6221 6.40212 14.9869 6.05498C14.3516 5.70784 13.6442 5.51349 12.9208 5.48734C11.3609 5.32735 9.92097 6.39728 9.09103 6.39728C8.26108 6.39728 7.09116 5.50734 5.79125 5.52734C4.94143 5.55533 4.11338 5.8031 3.38786 6.24648C2.66233 6.68986 2.0641 7.3137 1.65153 8.05717C-0.108356 11.117 1.20156 15.6667 2.96144 18.1365C3.76138 19.3464 4.76132 20.7163 6.08123 20.6663C7.40114 20.6163 7.83111 19.8464 9.36101 19.8464C10.8909 19.8464 11.3609 20.6663 12.6608 20.6363C13.9607 20.6063 14.8806 19.3964 15.7206 18.1865C16.3156 17.3081 16.7804 16.3482 17.1005 15.3367C16.308 14.9987 15.6319 14.436 15.1557 13.7181C14.6794 13.0002 14.4239 12.1585 14.4207 11.297V11.297Z" fill="white"/>
</svg>
