<svg width="24" height="26" viewBox="0 0 24 26" fill="none" xmlns="http://www.w3.org/2000/svg">
<path d="M16.1492 15.8027V16.6955C16.1492 16.8257 16.1073 16.9327 16.0236 17.0164C15.9399 17.1001 15.833 17.142 15.7028 17.142H7.66705C7.53684 17.142 7.42988 17.1001 7.34617 17.0164C7.26247 16.9327 7.22062 16.8257 7.22062 16.6955V15.8027C7.22062 15.6725 7.26247 15.5655 7.34617 15.4818C7.42988 15.3981 7.53684 15.3562 7.66705 15.3562H15.7028C15.833 15.3562 15.9399 15.3981 16.0236 15.4818C16.1073 15.5655 16.1492 15.6725 16.1492 15.8027ZM1.86347 23.392H21.5063V9.10624H1.86347V23.392ZM7.22062 6.42767V2.40982C7.22062 2.27961 7.17876 2.17265 7.09506 2.08895C7.01135 2.00524 6.9044 1.96339 6.77419 1.96339H5.88133C5.75112 1.96339 5.64417 2.00524 5.56046 2.08895C5.47675 2.17265 5.4349 2.27961 5.4349 2.40982V6.42767C5.4349 6.55788 5.47675 6.66484 5.56046 6.74854C5.64417 6.83225 5.75112 6.8741 5.88133 6.8741H6.77419C6.9044 6.8741 7.01135 6.83225 7.09506 6.74854C7.17876 6.66484 7.22062 6.55788 7.22062 6.42767ZM17.9349 6.42767V2.40982C17.9349 2.27961 17.8931 2.17265 17.8093 2.08895C17.7256 2.00524 17.6187 1.96339 17.4885 1.96339H16.5956C16.4654 1.96339 16.3585 2.00524 16.2747 2.08895C16.191 2.17265 16.1492 2.27961 16.1492 2.40982V6.42767C16.1492 6.55788 16.191 6.66484 16.2747 6.74854C16.3585 6.83225 16.4654 6.8741 16.5956 6.8741H17.4885C17.6187 6.8741 17.7256 6.83225 17.8093 6.74854C17.8931 6.66484 17.9349 6.55788 17.9349 6.42767ZM23.292 5.53482V23.392C23.292 23.8756 23.1153 24.2941 22.7619 24.6475C22.4085 25.001 21.99 25.1777 21.5063 25.1777H1.86347C1.37984 25.1777 0.961315 25.001 0.607893 24.6475C0.25447 24.2941 0.0777588 23.8756 0.0777588 23.392V5.53482C0.0777588 5.05119 0.25447 4.63266 0.607893 4.27924C0.961315 3.92581 1.37984 3.7491 1.86347 3.7491H3.64919V2.40982C3.64919 1.79598 3.86775 1.27049 4.30488 0.833365C4.74201 0.396237 5.26749 0.177673 5.88133 0.177673H6.77419C7.38803 0.177673 7.91351 0.396237 8.35064 0.833365C8.78777 1.27049 9.00633 1.79598 9.00633 2.40982V3.7491H14.3635V2.40982C14.3635 1.79598 14.582 1.27049 15.0192 0.833365C15.4563 0.396237 15.9818 0.177673 16.5956 0.177673H17.4885C18.1023 0.177673 18.6278 0.396237 19.0649 0.833365C19.5021 1.27049 19.7206 1.79598 19.7206 2.40982V3.7491H21.5063C21.99 3.7491 22.4085 3.92581 22.7619 4.27924C23.1153 4.63266 23.292 5.05119 23.292 5.53482Z" fill="#092C7B"/>
</svg>
