<svg width="27" height="21" viewBox="0 0 27 21" fill="none" xmlns="http://www.w3.org/2000/svg">
<path d="M22.3113 0.182312H5.04199C3.89008 0.183692 2.78575 0.641898 1.97122 1.45642C1.1567 2.27095 0.698493 3.37528 0.697113 4.52719V15.8374C0.698493 16.9893 1.1567 18.0937 1.97122 18.9082C2.78575 19.7227 3.89008 20.1809 5.04199 20.1823H22.3113C23.4632 20.1809 24.5676 19.7227 25.3821 18.9082C26.1966 18.0937 26.6548 16.9893 26.6562 15.8374V4.52719C26.6548 3.37528 26.1966 2.27095 25.3821 1.45642C24.5676 0.641898 23.4632 0.183692 22.3113 0.182312ZM5.04199 1.92026H22.3113C23.0025 1.921 23.6652 2.19589 24.1539 2.68463C24.6426 3.17336 24.9175 3.83602 24.9183 4.52719V5.66694H2.43506V4.52719C2.4358 3.83602 2.7107 3.17336 3.19943 2.68463C3.68816 2.19589 4.35082 1.921 5.04199 1.92026ZM22.3113 18.4444H5.04199C4.35082 18.4436 3.68816 18.1687 3.19943 17.68C2.7107 17.1913 2.4358 16.5286 2.43506 15.8374V7.40489H24.9183V15.8374C24.9175 16.5286 24.6426 17.1913 24.1539 17.68C23.6652 18.1687 23.0025 18.4436 22.3113 18.4444ZM22.543 14.3803C22.543 14.6108 22.4514 14.8318 22.2885 14.9948C22.1255 15.1578 21.9045 15.2493 21.674 15.2493H19.5906C19.3601 15.2493 19.1391 15.1578 18.9761 14.9948C18.8131 14.8318 18.7216 14.6108 18.7216 14.3803C18.7216 14.1499 18.8131 13.9288 18.9761 13.7659C19.1391 13.6029 19.3601 13.5114 19.5906 13.5114H21.674C21.9045 13.5114 22.1255 13.6029 22.2885 13.7659C22.4514 13.9288 22.543 14.1499 22.543 14.3803Z" fill="#092C7B"/>
</svg>
