<svg width="123" height="123" viewBox="0 0 123 123" fill="none" xmlns="http://www.w3.org/2000/svg">
<g filter="url(#filter0_d_48_26)">
<rect x="11.9733" y="9.60999" width="100" height="100" rx="4" fill="white"/>
<rect x="11.4733" y="9.10999" width="101" height="101" rx="4.5" stroke="#4CADCB"/>
</g>
<path d="M45.0643 86.1689H43.6522V78.7979H41.1444V77.6025H47.5663V78.7979H45.0643V86.1689ZM51.2811 79.5596C52.1014 79.5596 52.7206 79.7412 53.1385 80.1045C53.5604 80.4678 53.7713 81.0342 53.7713 81.8037V86.1689H52.7928L52.5291 85.249H52.4823C52.2987 85.4834 52.1092 85.6768 51.9139 85.8291C51.7186 85.9814 51.492 86.0947 51.2342 86.1689C50.9803 86.2471 50.6698 86.2861 50.3026 86.2861C49.9159 86.2861 49.5702 86.2158 49.2655 86.0752C48.9608 85.9307 48.7206 85.7119 48.5448 85.4189C48.369 85.126 48.2811 84.7549 48.2811 84.3057C48.2811 83.6377 48.5291 83.1357 49.0252 82.7998C49.5252 82.4639 50.2791 82.2783 51.287 82.2432L52.412 82.2021V81.8623C52.412 81.4131 52.3065 81.0928 52.0956 80.9014C51.8885 80.71 51.5956 80.6143 51.2166 80.6143C50.8924 80.6143 50.578 80.6611 50.2733 80.7549C49.9686 80.8486 49.6717 80.9639 49.3827 81.1006L48.9373 80.1279C49.2538 79.96 49.6131 79.8232 50.0155 79.7178C50.4217 79.6123 50.8436 79.5596 51.2811 79.5596ZM52.4061 83.0693L51.5682 83.0986C50.8807 83.1221 50.3983 83.2393 50.1209 83.4502C49.8436 83.6611 49.7049 83.9502 49.7049 84.3174C49.7049 84.6377 49.8006 84.8721 49.992 85.0205C50.1834 85.165 50.4354 85.2373 50.7479 85.2373C51.2245 85.2373 51.619 85.1025 51.9315 84.833C52.2479 84.5596 52.4061 84.1592 52.4061 83.6318V83.0693ZM58.9862 79.5596C59.0956 79.5596 59.2147 79.5654 59.3436 79.5771C59.4725 79.5889 59.5838 79.6045 59.6776 79.624L59.5487 80.9131C59.4666 80.8896 59.3651 80.8721 59.244 80.8604C59.1268 80.8486 59.0213 80.8428 58.9276 80.8428C58.6815 80.8428 58.4471 80.8838 58.2245 80.9658C58.0018 81.0439 57.8045 81.165 57.6327 81.3291C57.4608 81.4893 57.326 81.6904 57.2284 81.9326C57.1307 82.1748 57.0819 82.4561 57.0819 82.7764V86.1689H55.6991V79.6826H56.7772L56.9647 80.8252H57.0291C57.1581 80.5947 57.3182 80.3838 57.5096 80.1924C57.701 80.001 57.9198 79.8486 58.1659 79.7354C58.4159 79.6182 58.6893 79.5596 58.9862 79.5596ZM60.2284 89.0518C60.0252 89.0518 59.8319 89.0361 59.6483 89.0049C59.4647 88.9775 59.3104 88.9443 59.1854 88.9053V87.8037C59.3182 87.8428 59.4471 87.8721 59.5721 87.8916C59.6971 87.9111 59.8397 87.9209 59.9998 87.9209C60.2538 87.9209 60.4627 87.8506 60.6268 87.71C60.7948 87.5693 60.8788 87.3018 60.8788 86.9072V79.6826H62.2557V87.0303C62.2557 87.4248 62.1854 87.7744 62.0448 88.0791C61.9081 88.3838 61.6893 88.6221 61.3885 88.7939C61.0916 88.9658 60.7049 89.0518 60.2284 89.0518ZM60.7967 77.9541C60.7967 77.6768 60.8709 77.4814 61.0194 77.3682C61.1717 77.2549 61.3573 77.1982 61.576 77.1982C61.787 77.1982 61.9686 77.2549 62.1209 77.3682C62.2772 77.4814 62.3553 77.6768 62.3553 77.9541C62.3553 78.2275 62.2772 78.4229 62.1209 78.54C61.9686 78.6533 61.787 78.71 61.576 78.71C61.3573 78.71 61.1717 78.6533 61.0194 78.54C60.8709 78.4229 60.7967 78.2275 60.7967 77.9541ZM66.8143 79.5596C67.3924 79.5596 67.8885 79.6787 68.3026 79.917C68.7166 80.1553 69.035 80.4932 69.2577 80.9307C69.4803 81.3682 69.5916 81.8916 69.5916 82.501V83.2393H65.2616C65.2772 83.8682 65.4452 84.3525 65.7655 84.6924C66.0897 85.0322 66.5428 85.2021 67.1248 85.2021C67.5389 85.2021 67.91 85.1631 68.2381 85.085C68.5702 85.0029 68.912 84.8838 69.2635 84.7275V85.8467C68.9393 85.999 68.6092 86.1104 68.2733 86.1807C67.9373 86.251 67.535 86.2861 67.0663 86.2861C66.4295 86.2861 65.869 86.1631 65.3846 85.917C64.9041 85.667 64.5272 85.2959 64.2538 84.8037C63.9842 84.3115 63.8495 83.7002 63.8495 82.9697C63.8495 82.2432 63.9725 81.626 64.2186 81.1182C64.4647 80.6104 64.8104 80.2236 65.2557 79.958C65.701 79.6924 66.2206 79.5596 66.8143 79.5596ZM66.8143 80.5967C66.3807 80.5967 66.0291 80.7373 65.7596 81.0186C65.494 81.2998 65.3377 81.7119 65.2909 82.2549H68.244C68.2401 81.9307 68.1854 81.6436 68.0799 81.3936C67.9784 81.1436 67.8221 80.9482 67.6112 80.8076C67.4041 80.667 67.1385 80.5967 66.8143 80.5967ZM73.5584 85.1729C73.7381 85.1729 73.9159 85.1572 74.0916 85.126C74.2674 85.0908 74.4276 85.0498 74.5721 85.0029V86.0459C74.4198 86.1123 74.2225 86.1689 73.9803 86.2158C73.7381 86.2627 73.4862 86.2861 73.2245 86.2861C72.8573 86.2861 72.5272 86.2256 72.2342 86.1045C71.9413 85.9795 71.7088 85.7666 71.537 85.4658C71.3651 85.165 71.2791 84.749 71.2791 84.2178V80.7314H70.3944V80.1162L71.3436 79.6299L71.7948 78.2412H72.662V79.6826H74.5194V80.7314H72.662V84.2002C72.662 84.5283 72.744 84.7725 72.9081 84.9326C73.0721 85.0928 73.2889 85.1729 73.5584 85.1729ZM78.4334 79.5596C79.2538 79.5596 79.8729 79.7412 80.2909 80.1045C80.7127 80.4678 80.9237 81.0342 80.9237 81.8037V86.1689H79.9452L79.6815 85.249H79.6346C79.451 85.4834 79.2616 85.6768 79.0663 85.8291C78.8709 85.9814 78.6444 86.0947 78.3866 86.1689C78.1327 86.2471 77.8221 86.2861 77.4549 86.2861C77.0682 86.2861 76.7225 86.2158 76.4178 86.0752C76.1131 85.9307 75.8729 85.7119 75.6971 85.4189C75.5213 85.126 75.4334 84.7549 75.4334 84.3057C75.4334 83.6377 75.6815 83.1357 76.1776 82.7998C76.6776 82.4639 77.4315 82.2783 78.4393 82.2432L79.5643 82.2021V81.8623C79.5643 81.4131 79.4588 81.0928 79.2479 80.9014C79.0409 80.71 78.7479 80.6143 78.369 80.6143C78.0448 80.6143 77.7303 80.6611 77.4256 80.7549C77.1209 80.8486 76.8241 80.9639 76.535 81.1006L76.0897 80.1279C76.4061 79.96 76.7655 79.8232 77.1678 79.7178C77.5741 79.6123 77.9959 79.5596 78.4334 79.5596ZM79.5584 83.0693L78.7206 83.0986C78.0331 83.1221 77.5506 83.2393 77.2733 83.4502C76.9959 83.6611 76.8573 83.9502 76.8573 84.3174C76.8573 84.6377 76.953 84.8721 77.1444 85.0205C77.3358 85.165 77.5877 85.2373 77.9002 85.2373C78.3768 85.2373 78.7713 85.1025 79.0838 84.833C79.4002 84.5596 79.5584 84.1592 79.5584 83.6318V83.0693Z" fill="#222222"/>
<path d="M78.1632 26.2182H45.7832C43.6234 26.2208 41.5528 27.0799 40.0256 28.6072C38.4983 30.1344 37.6392 32.205 37.6366 34.3648V55.5716C37.6392 57.7314 38.4983 59.802 40.0256 61.3292C41.5528 62.8565 43.6234 63.7156 45.7832 63.7182H78.1632C80.3231 63.7156 82.3937 62.8565 83.9209 61.3292C85.4482 59.802 86.3073 57.7314 86.3099 55.5716V34.3648C86.3073 32.205 85.4482 30.1344 83.9209 28.6072C82.3937 27.0799 80.3231 26.2208 78.1632 26.2182V26.2182ZM45.7832 29.4769H78.1632C79.4592 29.4782 80.7017 29.9937 81.618 30.91C82.5344 31.8264 83.0498 33.0689 83.0512 34.3648V36.5019H40.8953V34.3648C40.8966 33.0689 41.4121 31.8264 42.3284 30.91C43.2448 29.9937 44.4873 29.4782 45.7832 29.4769ZM78.1632 60.4595H45.7832C44.4873 60.4582 43.2448 59.9427 42.3284 59.0264C41.4121 58.11 40.8966 56.8675 40.8953 55.5716V39.7605H83.0512V55.5716C83.0498 56.8675 82.5344 58.11 81.618 59.0264C80.7017 59.9427 79.4592 60.4582 78.1632 60.4595ZM78.5976 52.8395C78.5976 53.2716 78.426 53.686 78.1204 53.9916C77.8148 54.2972 77.4004 54.4688 76.9683 54.4688H73.0618C72.6297 54.4688 72.2153 54.2972 71.9097 53.9916C71.6041 53.686 71.4325 53.2716 71.4325 52.8395C71.4325 52.4074 71.6041 51.9929 71.9097 51.6874C72.2153 51.3818 72.6297 51.2102 73.0618 51.2102H76.9683C77.4004 51.2102 77.8148 51.3818 78.1204 51.6874C78.426 51.9929 78.5976 52.4074 78.5976 52.8395Z" fill="#092C7B"/>
<defs>
<filter id="filter0_d_48_26" x="0.973267" y="0.609985" width="122" height="122" filterUnits="userSpaceOnUse" color-interpolation-filters="sRGB">
<feFlood flood-opacity="0" result="BackgroundImageFix"/>
<feColorMatrix in="SourceAlpha" type="matrix" values="0 0 0 0 0 0 0 0 0 0 0 0 0 0 0 0 0 0 127 0" result="hardAlpha"/>
<feOffset dy="2"/>
<feGaussianBlur stdDeviation="5"/>
<feComposite in2="hardAlpha" operator="out"/>
<feColorMatrix type="matrix" values="0 0 0 0 0.298039 0 0 0 0 0.678431 0 0 0 0 0.796078 0 0 0 0.5 0"/>
<feBlend mode="normal" in2="BackgroundImageFix" result="effect1_dropShadow_48_26"/>
<feBlend mode="normal" in="SourceGraphic" in2="effect1_dropShadow_48_26" result="shape"/>
</filter>
</defs>
</svg>
