<svg width="33" height="22" viewBox="0 0 33 22" fill="none" xmlns="http://www.w3.org/2000/svg">
<path fill-rule="evenodd" clip-rule="evenodd" d="M11.0139 2.3265C7.46531 2.3265 4.58859 5.20322 4.58859 8.75184C4.58859 12.3005 7.46531 15.1772 11.0139 15.1772C14.5625 15.1772 17.4393 12.3005 17.4393 8.75184C17.4393 5.20322 14.5625 2.3265 11.0139 2.3265ZM3.5177 8.75184C3.5177 4.61179 6.87387 1.25562 11.0139 1.25562C15.154 1.25562 18.5101 4.61179 18.5101 8.75184C18.5101 12.8919 15.154 16.2481 11.0139 16.2481C6.87387 16.2481 3.5177 12.8919 3.5177 8.75184Z" fill="#BBBBBB" stroke="#BBBBBB" stroke-miterlimit="10"/>
<path fill-rule="evenodd" clip-rule="evenodd" d="M20.6346 2.45606L22.3909 15.1604C23.1494 15.1054 23.8935 14.916 24.588 14.5999C25.4237 14.2195 26.1681 13.6645 26.7712 12.9722C27.3744 12.2799 27.8221 11.4664 28.0843 10.5865C28.3466 9.70653 28.4172 8.78063 28.2915 7.8711C28.1657 6.96158 27.8466 6.08957 27.3554 5.31379C26.8643 4.53801 26.2126 3.87648 25.4443 3.37377C24.676 2.87105 23.8089 2.53882 22.9013 2.39944C22.1472 2.28362 21.3796 2.30322 20.6346 2.45606ZM21.3952 15.7784L19.5076 2.12374C19.4709 1.85885 19.6354 1.60756 19.8928 1.53504C20.9238 1.24454 22.0051 1.17837 23.0639 1.34096C24.1227 1.50356 25.1343 1.89116 26.0306 2.47765C26.927 3.06414 27.6873 3.83591 28.2602 4.74097C28.8332 5.64603 29.2056 6.66337 29.3523 7.72445C29.499 8.78555 29.4166 9.86575 29.1106 10.8923C28.8047 11.9189 28.2823 12.868 27.5787 13.6756C26.8755 14.4828 26.0076 15.1301 25.0334 15.5738C25.9215 15.8049 26.7842 16.1356 27.6045 16.5616C29.3586 17.4725 30.8673 18.7926 32.003 20.4102C32.1729 20.6523 32.1144 20.9862 31.8724 21.1561C31.6304 21.3261 31.2964 21.2676 31.1265 21.0256C30.0897 19.5488 28.7123 18.3435 27.111 17.5119C25.5111 16.6811 23.7347 16.2476 21.932 16.2481C21.9304 16.2481 21.9288 16.2481 21.9272 16.2481C21.9271 16.2481 21.9271 16.2481 21.9271 16.2481M21.3952 15.7784C21.404 15.8498 21.4268 15.9169 21.4608 15.9767C21.4847 16.0189 21.5143 16.0575 21.5483 16.0916C21.6452 16.1883 21.779 16.2481 21.9268 16.2481M11.0137 16.2481C9.20931 16.2482 7.43145 16.6824 5.83019 17.5141C4.54573 18.1812 3.40514 19.0884 2.46848 20.1832L19.5591 20.1825C18.6224 19.0878 17.4818 18.1807 16.1972 17.5137C14.5959 16.6821 12.818 16.2481 11.0137 16.2481ZM5.33659 16.5637C7.09031 15.6529 9.03746 15.1773 11.0136 15.1772C12.9898 15.1772 14.937 15.6526 16.6908 16.5633C18.4446 17.474 19.9535 18.7934 21.0901 20.4099C21.2051 20.5734 21.2194 20.7873 21.1273 20.9647C21.0352 21.142 20.852 21.2533 20.6522 21.2534L1.37555 21.2541C1.1757 21.2541 0.992478 21.1428 0.900361 20.9654C0.808243 20.7881 0.822564 20.5742 0.937504 20.4107C2.07404 18.7941 3.58286 17.4746 5.33659 16.5637Z" fill="#BBBBBB"/>
<path d="M21.3952 15.7784L19.5076 2.12374C19.4709 1.85885 19.6354 1.60756 19.8928 1.53504C20.9238 1.24454 22.0051 1.17837 23.0639 1.34096C24.1227 1.50356 25.1343 1.89116 26.0306 2.47765C26.927 3.06414 27.6873 3.83591 28.2602 4.74097C28.8332 5.64603 29.2056 6.66337 29.3523 7.72445C29.499 8.78555 29.4166 9.86575 29.1106 10.8923C28.8047 11.9189 28.2823 12.868 27.5787 13.6756C26.8755 14.4828 26.0076 15.1301 25.0334 15.5738C25.9215 15.8049 26.7842 16.1356 27.6045 16.5616C29.3586 17.4725 30.8673 18.7926 32.003 20.4102C32.1729 20.6523 32.1144 20.9862 31.8724 21.1561C31.6304 21.3261 31.2964 21.2676 31.1265 21.0256C30.0897 19.5488 28.7123 18.3435 27.111 17.5119C25.5111 16.6811 23.7347 16.2476 21.932 16.2481C21.9304 16.2481 21.9288 16.2481 21.9272 16.2481C21.9271 16.2481 21.9271 16.2481 21.9271 16.2481L21.3952 15.7784ZM21.3952 15.7784C21.404 15.8498 21.4268 15.9169 21.4608 15.9767C21.4847 16.0189 21.5143 16.0575 21.5483 16.0916C21.6452 16.1883 21.779 16.2481 21.9268 16.2481L21.3952 15.7784ZM22.3909 15.1604L20.6346 2.45606C21.3796 2.30322 22.1472 2.28362 22.9013 2.39944C23.8089 2.53882 24.676 2.87105 25.4443 3.37377C26.2126 3.87648 26.8643 4.53801 27.3554 5.31379C27.8466 6.08957 28.1657 6.96158 28.2915 7.8711C28.4172 8.78063 28.3466 9.70653 28.0843 10.5865C27.8221 11.4664 27.3744 12.2799 26.7712 12.9722C26.1681 13.6645 25.4237 14.2195 24.588 14.5999C23.8935 14.916 23.1494 15.1054 22.3909 15.1604ZM5.83019 17.5141C7.43145 16.6824 9.20931 16.2482 11.0137 16.2481C12.818 16.2481 14.5959 16.6821 16.1972 17.5137C17.4818 18.1807 18.6224 19.0878 19.5591 20.1825L2.46848 20.1832C3.40514 19.0884 4.54573 18.1812 5.83019 17.5141ZM11.0136 15.1772C9.03746 15.1773 7.09031 15.6529 5.33659 16.5637C3.58286 17.4746 2.07404 18.7941 0.937504 20.4107C0.822564 20.5742 0.808243 20.7881 0.900361 20.9654C0.992478 21.1428 1.1757 21.2541 1.37555 21.2541L20.6522 21.2534C20.852 21.2533 21.0352 21.142 21.1273 20.9647C21.2194 20.7873 21.2051 20.5734 21.0901 20.4099C19.9535 18.7934 18.4446 17.474 16.6908 16.5633C14.937 15.6526 12.9898 15.1772 11.0136 15.1772Z" stroke="#BBBBBB" stroke-linecap="round" stroke-linejoin="round"/>
</svg>
